<svg xmlns="http://www.w3.org/2000/svg" width="960" height="540" viewBox="0 0 960 540" role="img" aria-labelledby="title">
  <title id="title">從 A 流出的三條相同電流</title>
  <defs>
    <marker id="arrow" viewBox="0 0 10 10" refX="8.5" refY="5" markerWidth="7" markerHeight="7" orient="auto-start-reverse">
      <path d="M 0 0 L 10 5 L 0 10 z" fill="#60a5fa"/>
    </marker>
    <marker id="arrow2" viewBox="0 0 10 10" refX="8.5" refY="5" markerWidth="7" markerHeight="7" orient="auto-start-reverse">
      <path d="M 0 0 L 10 5 L 0 10 z" fill="#f59e0b"/>
    </marker>
    <marker id="arrow-edge" viewBox="0 0 10 10" refX="8.5" refY="5" markerWidth="7" markerHeight="7" orient="auto-start-reverse">
      <path d="M 0 0 L 10 5 L 0 10 z" fill="#cbd5e1"/>
    </marker>
    <marker id="arrow-warn" viewBox="0 0 10 10" refX="8.5" refY="5" markerWidth="7" markerHeight="7" orient="auto-start-reverse">
      <path d="M 0 0 L 10 5 L 0 10 z" fill="#f87171"/>
    </marker>
  </defs>
  <style>
    text {
      font-family: "Noto Sans TC", "Noto Sans CJK TC", -apple-system, BlinkMacSystemFont, "Segoe UI", sans-serif;
      fill: #e5e7eb;
    }
    .label { font-size: 22px; font-weight: 700; }
    .small { font-size: 18px; }
    .tiny { font-size: 15px; }
    .math { font-size: 24px; font-weight: 650; }
    .muted { fill: #9aa7b8; }
    .edge { stroke: #cbd5e1; stroke-width: 4; stroke-linecap: round; stroke-linejoin: round; fill: none; }
    .thin { stroke: #334155; stroke-width: 2; stroke-linecap: round; stroke-linejoin: round; fill: none; }
    .dash { stroke-dasharray: 8 8; }
    .panel { fill: #111827; stroke: #334155; stroke-width: 2; }
    .panel2 { fill: #1e293b; stroke: #334155; stroke-width: 2; }
  </style>
  <rect width="960" height="540" fill="#0b1120"/>

  <rect x="95" y="75" width="770" height="390" rx="16" class="panel"/>
  <g>
    <circle cx="255.0" cy="270.0" r="34" fill="#64748b" stroke="#0b1120" stroke-width="4"/>
    <text x="255.0" y="277.0" class="small" text-anchor="middle" style="fill:white">A</text>
  </g>
  <g>
    <circle cx="640.0" cy="160.0" r="25" fill="#60a5fa" stroke="#0b1120" stroke-width="4"/>
    <text x="640.0" y="167.0" class="small" text-anchor="middle" style="fill:white">B</text>
  </g>
  <g>
    <circle cx="690.0" cy="270.0" r="25" fill="#60a5fa" stroke="#0b1120" stroke-width="4"/>
    <text x="690.0" y="277.0" class="small" text-anchor="middle" style="fill:white">B</text>
  </g>
  <g>
    <circle cx="640.0" cy="380.0" r="25" fill="#60a5fa" stroke="#0b1120" stroke-width="4"/>
    <text x="640.0" y="387.0" class="small" text-anchor="middle" style="fill:white">B</text>
  </g>
  <path d="M 292 260 C 390 210, 500 175, 608 162" stroke="#cbd5e1" stroke-width="5" stroke-linecap="round" stroke-linejoin="round" fill="none" marker-end="url(#arrow-edge)"/>
  <path d="M 295 270 H 655" stroke="#cbd5e1" stroke-width="5" stroke-linecap="round" stroke-linejoin="round" fill="none" marker-end="url(#arrow-edge)"/>
  <path d="M 292 280 C 390 330, 500 365, 608 378" stroke="#cbd5e1" stroke-width="5" stroke-linecap="round" stroke-linejoin="round" fill="none" marker-end="url(#arrow-edge)"/>
  <g>
    <rect x="397" y="152" width="116" height="40" rx="10" fill="#0b1120" stroke="#334155" stroke-width="2"/>
    <text x="455.0" y="181.0" class="small" text-anchor="middle" style="fill:#e5e7eb">(1-b)/R</text>
  </g>
  <g>
    <rect x="422" y="202" width="116" height="40" rx="10" fill="#0b1120" stroke="#334155" stroke-width="2"/>
    <text x="480.0" y="231.0" class="small" text-anchor="middle" style="fill:#e5e7eb">(1-b)/R</text>
  </g>
  <g>
    <rect x="397" y="390" width="116" height="40" rx="10" fill="#0b1120" stroke="#334155" stroke-width="2"/>
    <text x="455.0" y="419.0" class="small" text-anchor="middle" style="fill:#e5e7eb">(1-b)/R</text>
  </g>
  <path d="M 735 150 C 812 205, 812 335, 735 390" stroke="#60a5fa" stroke-width="4" fill="none"/>
  <text x="805.0" y="276.0" class="math" text-anchor="start" style="fill:#60a5fa">I = 3(1-b)/R</text>

</svg>
